<svg id="visual" viewBox="0 0 900 600" width="900" height="600" xmlns="http://www.w3.org/2000/svg" xmlns:xlink="http://www.w3.org/1999/xlink" version="1.1"><rect x="0" y="0" width="900" height="600" fill="#161616"></rect><path d="M0 358L21.5 362.3C43 366.7 86 375.3 128.8 374.7C171.7 374 214.3 364 257.2 360.8C300 357.7 343 361.3 385.8 366.7C428.7 372 471.3 379 514.2 382.2C557 385.3 600 384.7 642.8 380.7C685.7 376.7 728.3 369.3 771.2 374.7C814 380 857 398 878.5 407L900 416L900 601L878.5 601C857 601 814 601 771.2 601C728.3 601 685.7 601 642.8 601C600 601 557 601 514.2 601C471.3 601 428.7 601 385.8 601C343 601 300 601 257.2 601C214.3 601 171.7 601 128.8 601C86 601 43 601 21.5 601L0 601Z" fill="#fa7268"></path><path d="M0 443L21.5 440.2C43 437.3 86 431.7 128.8 424C171.7 416.3 214.3 406.7 257.2 401.8C300 397 343 397 385.8 398.2C428.7 399.3 471.3 401.7 514.2 410.7C557 419.7 600 435.3 642.8 445C685.7 454.7 728.3 458.3 771.2 449.2C814 440 857 418 878.5 407L900 396L900 601L878.5 601C857 601 814 601 771.2 601C728.3 601 685.7 601 642.8 601C600 601 557 601 514.2 601C471.3 601 428.7 601 385.8 601C343 601 300 601 257.2 601C214.3 601 171.7 601 128.8 601C86 601 43 601 21.5 601L0 601Z" fill="#ef5f67"></path><path d="M0 498L21.5 489.7C43 481.3 86 464.7 128.8 455.5C171.7 446.3 214.3 444.7 257.2 447.8C300 451 343 459 385.8 458.8C428.7 458.7 471.3 450.3 514.2 448.3C557 446.3 600 450.7 642.8 454.3C685.7 458 728.3 461 771.2 461.3C814 461.7 857 459.3 878.5 458.2L900 457L900 601L878.5 601C857 601 814 601 771.2 601C728.3 601 685.7 601 642.8 601C600 601 557 601 514.2 601C471.3 601 428.7 601 385.8 601C343 601 300 601 257.2 601C214.3 601 171.7 601 128.8 601C86 601 43 601 21.5 601L0 601Z" fill="#e34c67"></path><path d="M0 525L21.5 519.7C43 514.3 86 503.7 128.8 497.2C171.7 490.7 214.3 488.3 257.2 494.5C300 500.7 343 515.3 385.8 522.3C428.7 529.3 471.3 528.7 514.2 530.7C557 532.7 600 537.3 642.8 533.2C685.7 529 728.3 516 771.2 506.7C814 497.3 857 491.7 878.5 488.8L900 486L900 601L878.5 601C857 601 814 601 771.2 601C728.3 601 685.7 601 642.8 601C600 601 557 601 514.2 601C471.3 601 428.7 601 385.8 601C343 601 300 601 257.2 601C214.3 601 171.7 601 128.8 601C86 601 43 601 21.5 601L0 601Z" fill="#d53867"></path><path d="M0 558L21.5 552.5C43 547 86 536 128.8 533C171.7 530 214.3 535 257.2 540.5C300 546 343 552 385.8 554.5C428.7 557 471.3 556 514.2 556.5C557 557 600 559 642.8 558.8C685.7 558.7 728.3 556.3 771.2 553C814 549.7 857 545.3 878.5 543.2L900 541L900 601L878.5 601C857 601 814 601 771.2 601C728.3 601 685.7 601 642.8 601C600 601 557 601 514.2 601C471.3 601 428.7 601 385.8 601C343 601 300 601 257.2 601C214.3 601 171.7 601 128.8 601C86 601 43 601 21.5 601L0 601Z" fill="#c62368"></path></svg>